<svg width="512" height="512" viewBox="0 0 512 512"
  xmlns="http://www.w3.org/2000/svg">
  <path fillRule="evenodd" clipRule="evenodd" d="M109.5 402.5C186.901 486.773 321.59 483.41 402.5 402.5C514 291 512 219 402.5 109.5C321.59 28.5903 190.41 28.5903 109.5 109.5C4.00002 215 2.50002 286 109.5 402.5ZM151.429 360.568C209.18 418.32 302.814 418.32 360.566 360.568C436.634 284.5 432.634 223.5 360.566 151.432C302.814 93.6801 209.18 93.6801 151.429 151.432C81.5 221.361 79 288.139 151.429 360.568Z" />
  <path d="M319.52 319.523C284.437 354.606 227.557 354.606 192.474 319.523C157.392 284.44 157.392 227.56 192.474 192.477C227.557 157.394 284.437 157.394 319.52 192.477C354.603 227.56 354.603 284.44 319.52 319.523Z" />
</svg>
